<?xml version="1.0" encoding="UTF-8"?>
<!DOCTYPE svg PUBLIC "-//W3C//DTD SVG 1.1//EN" "http://www.w3.org/Graphics/SVG/1.1/DTD/svg11.dtd">
<!-- Creator: CorelDRAW 2020 (64-Bit) -->
<svg xmlns="http://www.w3.org/2000/svg" xml:space="preserve" width="3.93701in" height="0.787402in" version="1.1" style="shape-rendering:geometricPrecision; text-rendering:geometricPrecision; image-rendering:optimizeQuality; fill-rule:evenodd; clip-rule:evenodd"
viewBox="0 0 3937.01 787.4"
 xmlns:xlink="http://www.w3.org/1999/xlink"
 xmlns:xodm="http://www.corel.com/coreldraw/odm/2003">
 <defs>
  <style type="text/css">
   <![CDATA[
    .fil0 {fill:#158000}
    .fil1 {fill:black;fill-rule:nonzero}
    .fil2 {fill:white;fill-rule:nonzero}
   ]]>
  </style>
 </defs>
 <g id="Layer_x0020_2">
  <metadata id="CorelCorpID_0Corel-Layer"/>
  <polygon class="fil0" points="2174.94,-11.74 3960.89,-11.74 3960.89,791.76 1371.44,791.76 1371.44,791.76 "/>
 </g>
 <g id="Layer_x0020_1">
  <metadata id="CorelCorpID_1Corel-Layer"/>
  <g id="_2005962011600">
   <path class="fil1" d="M511.84 430.37c0,16.67 -6.67,33.33 -20,46.67 -13.33,16.67 -26.67,23.33 -46.67,23.33 -10,0 -23.33,0 -43.33,0 -20,0 -33.33,0 -43.33,0 -6.67,0 -16.67,0 -26.67,0 -10,0 -20,0 -26.67,0 -3.33,0 -3.33,0 -3.33,-3.33 0,-13.33 0,-30 0,-53.33 3.33,-26.67 3.33,-43.33 3.33,-53.33 0,-13.33 0,-36.67 -3.33,-73.33 0,-6.67 0,-20 0,-40l0 0c0,-3.33 0,-6.67 3.33,-6.67l113.33 0c26.67,0 46.67,6.67 63.33,16.67 6.67,6.67 13.33,13.33 16.67,23.33 6.67,10 6.67,16.67 6.67,26.67 0,10 -3.33,16.67 -10,26.67 -6.67,10 -10,16.67 -10,13.33 0,3.33 3.33,3.33 6.67,6.67 13.33,10 20,23.33 20,46.67zm-93.33 -90c0,-10 -10,-13.33 -26.67,-13.33 -3.33,0 -6.67,0 -6.67,3.33 0,0 0,3.33 0,10 0,3.33 0,6.67 0,6.67 0,3.33 3.33,3.33 6.67,3.33 16.67,0 26.67,-3.33 26.67,-10zm3.33 83.33c0,-10 -10,-13.33 -30,-13.33 -3.33,0 -6.67,0 -6.67,3.33 0,0 0,3.33 0,6.67 0,6.67 0,10 0,10 0,3.33 3.33,3.33 10,3.33 6.67,0 13.33,0 16.67,0 6.67,0 10,-3.33 10,-10zm293.33 10c0,6.67 0,10 -3.33,16.67 0,10 -3.33,16.67 -3.33,16.67 0,6.67 -3.33,16.67 -3.33,33.33 -3.33,3.33 -3.33,3.33 -6.67,3.33 -3.33,0 -3.33,0 -6.67,0 -16.67,-3.33 -43.33,-3.33 -73.33,-3.33 -10,0 -23.33,0 -40,0 -16.67,0 -30,0 -40,0 -3.33,0 -3.33,0 -3.33,-3.33 0,-13.33 0,-33.33 0,-56.67 3.33,-23.33 3.33,-43.33 3.33,-53.33 0,-13.33 0,-36.67 -3.33,-70 0,-10 0,-23.33 0,-40l0 0c0,-3.33 0,-6.67 3.33,-6.67 10,0 20,3.33 36.67,3.33 20,0 30,0 40,0 10,0 20,0 40,0 16.67,0 30,-3.33 36.67,-3.33 6.67,0 10,3.33 13.33,10 0,3.33 0,10 3.33,30 0,16.67 0,23.33 0,26.67 0,3.33 0,3.33 -3.33,3.33 -3.33,0 -13.33,0 -26.67,0 -10,-3.33 -20,-3.33 -26.67,-3.33 -10,0 -13.33,0 -16.67,0 -6.67,0 -10,3.33 -10,6.67 0,6.67 3.33,10 13.33,10 3.33,0 10,0 20,0 10,0 20,0 26.67,0 13.33,0 16.67,-3.33 13.33,-3.33 3.33,0 6.67,3.33 6.67,6.67 0,3.33 -3.33,6.67 -3.33,13.33 0,6.67 -3.33,13.33 -3.33,13.33 0,16.67 0,26.67 0,33.33 0,0 -3.33,3.33 -6.67,3.33 3.33,0 -3.33,0 -13.33,-3.33 -10,0 -23.33,0 -40,0 -10,0 -13.33,0 -13.33,6.67 0,3.33 0,3.33 0,6.67 3.33,0 20,3.33 50,3.33 3.33,0 10,0 16.67,0 10,-3.33 13.33,-3.33 20,-3.33 0,0 3.33,3.33 3.33,3.33zm226.67 63.33c0,3.33 0,3.33 -3.33,3.33 -3.33,0 -13.33,0 -20,0 -10,0 -16.67,0 -23.33,0 -3.33,0 -10,0 -20,0 -6.67,0 -13.33,0 -20,0 -3.33,0 -6.67,0 -6.67,-3.33 -3.33,-6.67 -3.33,-13.33 -10,-23.33 -3.33,-10 -6.67,-23.33 -13.33,-40 -3.33,-3.33 -3.33,-6.67 -3.33,-6.67 -3.33,0 -3.33,0 -3.33,3.33 0,10 0,20 3.33,33.33 0,16.67 3.33,26.67 3.33,33.33 0,3.33 -3.33,3.33 -3.33,3.33 -3.33,0 -3.33,0 -6.67,0 -6.67,0 -23.33,0 -40,0 -6.67,0 -10,0 -20,0 -6.67,0 -13.33,0 -20,0 -3.33,0 -3.33,0 -3.33,-3.33 0,-13.33 0,-33.33 0,-56.67 3.33,-23.33 3.33,-43.33 3.33,-53.33 0,-33.33 0,-66.67 -3.33,-110l0 0c0,-3.33 0,-3.33 3.33,-6.67 -3.33,0 0,0 3.33,0 13.33,0 30,0 53.33,0 26.67,0 43.33,0 56.67,0 23.33,0 43.33,6.67 60,16.67 20,13.33 30,30 30,56.67 0,13.33 -3.33,26.67 -6.67,36.67 -3.33,10 -13.33,16.67 -26.67,26.67 0,3.33 -3.33,3.33 -3.33,6.67 0,0 6.67,13.33 20,43.33 13.33,26.67 20,40 20,40zm-90 -143.33c0,-13.33 -10,-16.67 -26.67,-16.67 -6.67,0 -6.67,6.67 -6.67,20 0,0 0,3.33 0,6.67 0,3.33 0,6.67 0,6.67 0,3.33 0,3.33 6.67,3.33 16.67,0 26.67,-6.67 26.67,-20zm363.33 143.33c0,3.33 -3.33,3.33 -6.67,3.33 -3.33,0 -10,0 -20,0 -6.67,0 -13.33,0 -20,0 -3.33,0 -10,0 -16.67,0 -10,0 -16.67,0 -20,0 -3.33,0 -6.67,-3.33 -6.67,-6.67 0,-6.67 0,-16.67 3.33,-33.33 0,-13.33 0,-23.33 0,-33.33 0,-3.33 0,-3.33 0,-3.33 -3.33,0 -10,13.33 -23.33,40 -10,26.67 -16.67,43.33 -20,43.33 -3.33,0 -10,-16.67 -20,-43.33 -13.33,-26.67 -20,-40 -20,-40 -3.33,0 -3.33,0 -3.33,3.33 0,10 0,20 3.33,33.33 0,16.67 0,26.67 0,33.33 0,3.33 -3.33,6.67 -6.67,6.67 -3.33,0 -10,0 -16.67,0 -10,0 -16.67,0 -20,0 -3.33,0 -10,0 -20,0 -6.67,0 -13.33,0 -20,0 -3.33,0 -3.33,0 -3.33,-3.33 0,-13.33 0,-30 0,-53.33 3.33,-26.67 3.33,-43.33 3.33,-53.33 0,-13.33 0,-33.33 -3.33,-56.67 0,-26.67 0,-46.67 0,-56.67 0,-3.33 3.33,-6.67 6.67,-6.67 3.33,0 10,0 16.67,0 6.67,0 13.33,0 16.67,0 3.33,0 10,0 16.67,0 10,0 16.67,-3.33 20,-3.33 0,0 3.33,3.33 3.33,10 13.33,16.67 26.67,40 40,63.33 3.33,10 6.67,13.33 6.67,13.33 3.33,0 6.67,-3.33 10,-10 3.33,-10 6.67,-20 16.67,-33.33 10,-20 16.67,-30 20,-33.33 0,-3.33 3.33,-6.67 6.67,-6.67 3.33,0 10,0 16.67,0 10,0 13.33,0 20,0 3.33,0 10,0 16.67,0 6.67,0 13.33,0 16.67,0 3.33,0 6.67,0 6.67,3.33 0,13.33 -3.33,33.33 -3.33,56.67 0,26.67 0,46.67 0,60 0,10 0,26.67 0,53.33 0,23.33 3.33,40 3.33,53.33zm256.67 0c0,3.33 -3.33,3.33 -6.67,3.33 -6.67,0 -13.33,0 -23.33,0 -10,0 -16.67,0 -20,0 -3.33,0 -13.33,0 -20,0 -10,0 -16.67,0 -23.33,0 0,0 -3.33,-3.33 -3.33,-3.33 0,0 0,-3.33 0,-10 0,-3.33 -3.33,-6.67 -6.67,-6.67 -23.33,0 -40,0 -43.33,3.33 -3.33,0 -6.67,3.33 -10,10 0,3.33 0,6.67 -3.33,6.67 -3.33,0 -10,0 -20,0 -10,0 -16.67,0 -20,0 -3.33,0 -10,0 -20,0 -10,0 -16.67,0 -20,0 -3.33,0 -3.33,0 -3.33,-3.33 0,-3.33 23.33,-76.67 76.67,-223.33 0,-3.33 0,-3.33 0,-3.33 3.33,-3.33 3.33,-3.33 6.67,-3.33 3.33,0 10,3.33 16.67,3.33 6.67,0 13.33,0 16.67,0 16.67,0 26.67,0 33.33,0 0,-3.33 0,-3.33 0,-3.33 3.33,0 6.67,3.33 6.67,6.67 3.33,3.33 6.67,10 13.33,30 6.67,13.33 16.67,33.33 26.67,60 6.67,16.67 13.33,36.67 23.33,66.67 10,30 16.67,50 20,66.67 0,0 3.33,0 3.33,0zm-110 -103.33c0,-10 -3.33,-16.67 -13.33,-23.33 -10,6.67 -16.67,16.67 -16.67,23.33 0,3.33 3.33,6.67 6.67,10 3.33,3.33 6.67,3.33 10,3.33 3.33,0 6.67,0 10,-3.33 3.33,-3.33 3.33,-6.67 3.33,-10zm286.67 -56.67c0,3.33 0,3.33 -3.33,3.33 3.33,0 -10,0 -40,-3.33 0,20 -3.33,33.33 -3.33,40 0,13.33 3.33,33.33 3.33,60 0,26.67 0,46.67 0,60 0,3.33 0,3.33 -3.33,3.33 -3.33,0 -10,0 -20,0 -10,0 -16.67,0 -23.33,0 -3.33,0 -10,0 -20,0 -6.67,0 -13.33,0 -20,0 -3.33,0 -3.33,0 -3.33,-3.33 0,-13.33 0,-33.33 0,-60 3.33,-26.67 3.33,-46.67 3.33,-60 0,-6.67 0,-20 0,-36.67 -10,0 -23.33,0 -43.33,3.33 -3.33,0 -3.33,-3.33 -3.33,-3.33 0,0 0,-6.67 3.33,-16.67 0,-10 3.33,-16.67 3.33,-16.67 0,-10 0,-23.33 3.33,-36.67 0,0 0,0 3.33,0 0,0 0,0 0,0 23.33,0 50,3.33 80,3.33 10,0 30,-3.33 56.67,-3.33 13.33,-3.33 20,-3.33 20,-3.33 3.33,0 6.67,0 6.67,3.33 0,3.33 -3.33,10 -3.33,16.67 0,6.67 0,13.33 0,16.67 0,3.33 0,10 0,16.67 3.33,6.67 3.33,13.33 3.33,16.67zm196.67 96.67c0,6.67 0,10 -3.33,16.67 0,10 -3.33,16.67 -3.33,16.67 0,6.67 -3.33,16.67 -3.33,33.33 -3.33,3.33 -3.33,3.33 -6.67,3.33 0,0 -3.33,0 -6.67,0 -16.67,-3.33 -43.33,-3.33 -73.33,-3.33 -10,0 -23.33,0 -40,0 -16.67,0 -30,0 -40,0 -3.33,0 -3.33,0 -3.33,-3.33 0,-13.33 0,-33.33 0,-56.67 3.33,-23.33 3.33,-43.33 3.33,-53.33 0,-13.33 0,-36.67 -3.33,-70 0,-10 0,-23.33 0,-40l0 0c0,-3.33 0,-6.67 3.33,-6.67 10,0 20,3.33 40,3.33 16.67,0 26.67,0 36.67,0 10,0 20,0 40,0 16.67,0 30,-3.33 36.67,-3.33 6.67,0 10,3.33 13.33,10 0,3.33 0,10 3.33,30 0,16.67 0,23.33 0,26.67 0,3.33 0,3.33 -3.33,3.33 -3.33,0 -13.33,0 -26.67,0 -10,-3.33 -20,-3.33 -26.67,-3.33 -10,0 -13.33,0 -16.67,0 -6.67,0 -10,3.33 -10,6.67 0,6.67 3.33,10 13.33,10 3.33,0 10,0 20,0 10,0 20,0 26.67,0 13.33,0 16.67,-3.33 13.33,-3.33 3.33,0 6.67,3.33 6.67,6.67 0,3.33 -3.33,6.67 -3.33,13.33 0,6.67 0,13.33 -3.33,13.33 0,16.67 0,26.67 0,33.33 0,0 -3.33,3.33 -6.67,3.33 3.33,0 -3.33,0 -13.33,-3.33 -10,0 -23.33,0 -40,0 -10,0 -13.33,0 -13.33,6.67 0,3.33 0,3.33 0,6.67 3.33,0 20,3.33 50,3.33 3.33,0 10,0 16.67,0 10,-3.33 13.33,-3.33 20,-3.33 0,0 3.33,3.33 3.33,3.33zm273.33 63.33c0,3.33 -3.33,3.33 -6.67,3.33 -3.33,0 -10,0 -20,0 -6.67,0 -13.33,0 -16.67,0 -6.67,0 -13.33,0 -20,0 -10,0 -16.67,0 -20,0 -3.33,0 -6.67,-3.33 -6.67,-6.67 0,-6.67 3.33,-16.67 3.33,-33.33 0,-13.33 0,-23.33 0,-33.33 0,-3.33 0,-3.33 0,-3.33 -3.33,0 -10,13.33 -23.33,40 -10,26.67 -16.67,43.33 -20,43.33 -3.33,0 -10,-16.67 -20,-43.33 -13.33,-26.67 -20,-40 -20,-40 0,0 -3.33,0 -3.33,3.33 0,10 3.33,20 3.33,33.33 0,16.67 0,26.67 0,33.33 0,3.33 0,6.67 -3.33,6.67 -6.67,0 -13.33,0 -20,0 -10,0 -16.67,0 -20,0 -3.33,0 -10,0 -20,0 -6.67,0 -13.33,0 -20,0 -3.33,0 -3.33,0 -3.33,-3.33 0,-13.33 0,-30 0,-53.33 3.33,-26.67 3.33,-43.33 3.33,-53.33 0,-13.33 0,-33.33 -3.33,-56.67 0,-26.67 0,-46.67 0,-56.67 0,-3.33 3.33,-6.67 6.67,-6.67 3.33,0 10,0 16.67,0 6.67,0 13.33,0 16.67,0 3.33,0 10,0 16.67,0 10,0 16.67,-3.33 20,-3.33 0,0 3.33,3.33 6.67,10 10,16.67 23.33,40 36.67,63.33 3.33,10 6.67,13.33 6.67,13.33 3.33,0 6.67,-3.33 10,-10 3.33,-10 10,-20 16.67,-33.33 10,-20 16.67,-30 20,-33.33 0,-3.33 3.33,-6.67 6.67,-6.67 3.33,0 10,0 16.67,0 10,0 13.33,0 20,0 3.33,0 10,0 16.67,0 6.67,0 13.33,0 16.67,0 3.33,0 6.67,0 6.67,3.33 0,13.33 -3.33,33.33 -3.33,56.67 0,26.67 0,46.67 0,60 0,10 0,26.67 0,53.33 0,23.33 3.33,40 3.33,53.33z"/>
   <path class="fil2" d="M2375.17 497.04c0,3.33 -3.33,3.33 -6.67,3.33 -6.67,0 -13.33,0 -23.33,0 -6.67,0 -16.67,0 -20,0 -3.33,0 -10,0 -20,0 -10,0 -16.67,0 -20,0 -3.33,0 -6.67,-3.33 -6.67,-3.33 0,0 0,-3.33 0,-10 0,-3.33 -3.33,-6.67 -6.67,-6.67 -23.33,0 -40,0 -43.33,3.33 -3.33,0 -6.67,3.33 -6.67,10 -3.33,3.33 -3.33,6.67 -6.67,6.67 -3.33,0 -10,0 -20,0 -10,0 -16.67,0 -20,0 -3.33,0 -10,0 -20,0 -10,0 -16.67,0 -20,0 -3.33,0 -3.33,0 -3.33,-3.33 0,-3.33 23.33,-76.67 76.67,-223.33 0,-3.33 0,-3.33 3.33,-3.33 0,-3.33 0,-3.33 3.33,-3.33 3.33,0 10,3.33 16.67,3.33 6.67,0 13.33,0 16.67,0 16.67,0 26.67,0 33.33,0 0,-3.33 0,-3.33 3.33,-3.33 0,0 3.33,3.33 6.67,6.67 0,3.33 3.33,10 13.33,30 3.33,13.33 13.33,33.33 23.33,60 6.67,16.67 13.33,36.67 23.33,66.67 10,30 16.67,50 20,66.67 3.33,0 3.33,0 3.33,0zm-110 -103.33c0,-10 -3.33,-16.67 -13.33,-23.33 -10,6.67 -13.33,16.67 -13.33,23.33 0,3.33 0,6.67 3.33,10 3.33,3.33 6.67,3.33 10,3.33 3.33,0 6.67,0 10,-3.33 3.33,-3.33 3.33,-6.67 3.33,-10zm286.67 -56.67c0,3.33 0,3.33 -3.33,3.33 3.33,0 -10,0 -40,-3.33 0,20 0,33.33 0,40 0,13.33 0,33.33 0,60 0,26.67 3.33,46.67 3.33,60 0,3.33 -3.33,3.33 -6.67,3.33 -3.33,0 -10,0 -20,0 -10,0 -16.67,0 -20,0 -6.67,0 -13.33,0 -20,0 -10,0 -16.67,0 -20,0 -6.67,0 -6.67,0 -6.67,-3.33 0,-13.33 0,-33.33 0,-60 3.33,-26.67 3.33,-46.67 3.33,-60 0,-6.67 0,-20 0,-36.67 -10,0 -23.33,0 -43.33,3.33 -3.33,0 -3.33,-3.33 -3.33,-3.33 0,0 0,-6.67 3.33,-16.67 3.33,-10 3.33,-16.67 3.33,-16.67 0,-10 0,-23.33 3.33,-36.67 0,0 0,0 3.33,0 0,0 0,0 0,0 23.33,0 50,3.33 80,3.33 10,0 30,-3.33 56.67,-3.33 13.33,-3.33 20,-3.33 20,-3.33 3.33,0 6.67,0 6.67,3.33 0,3.33 0,10 -3.33,16.67 0,6.67 0,13.33 0,16.67 0,3.33 0,10 3.33,16.67 0,6.67 0,13.33 0,16.67zm110 160c0,3.33 -3.33,3.33 -6.67,3.33 -3.33,0 -10,0 -20,0 -10,0 -16.67,0 -20,0 -6.67,0 -13.33,0 -23.33,0 -6.67,0 -13.33,0 -20,0 -3.33,0 -3.33,0 -3.33,-3.33 0,-13.33 0,-33.33 0,-60 3.33,-26.67 3.33,-46.67 3.33,-60 0,-13.33 0,-30 -3.33,-50 0,-23.33 0,-40 0,-50 0,-3.33 0,-6.67 3.33,-6.67 6.67,0 13.33,3.33 23.33,3.33 6.67,0 16.67,0 20,0 3.33,0 10,0 20,0 10,0 16.67,-3.33 20,-3.33 3.33,0 6.67,3.33 6.67,6.67 0,10 -3.33,26.67 -3.33,50 0,20 0,36.67 0,50 0,13.33 0,33.33 0,60 0,26.67 3.33,46.67 3.33,60zm246.67 -6.67c0,3.33 0,3.33 -3.33,6.67 -3.33,3.33 -3.33,3.33 -6.67,3.33 0,0 -6.67,0 -13.33,0 -3.33,0 -10,0 -13.33,0 -3.33,0 -13.33,0 -26.67,0 -10,0 -20,0 -26.67,0 0,0 -3.33,0 -3.33,-3.33 0,0 0,0 0,-3.33 -3.33,-6.67 -6.67,-13.33 -13.33,-26.67 -6.67,-13.33 -13.33,-20 -13.33,-26.67 -3.33,-6.67 -6.67,-13.33 -10,-20 0,0 0,0 0,0 0,0 -3.33,3.33 -3.33,6.67 0,10 0,20 3.33,33.33 0,16.67 0,26.67 0,33.33 0,3.33 -3.33,6.67 -6.67,6.67 -3.33,0 -10,0 -20,0 -10,0 -16.67,0 -20,0 -6.67,0 -10,0 -20,0 -10,0 -13.33,0 -20,0 -3.33,0 -3.33,0 -3.33,-3.33 0,-13.33 0,-30 0,-53.33 0,-26.67 3.33,-43.33 3.33,-53.33 0,-13.33 -3.33,-33.33 -3.33,-56.67 0,-26.67 0,-46.67 0,-56.67 0,-3.33 0,-6.67 3.33,-6.67 3.33,0 10,3.33 20,3.33 10,0 16.67,0 20,0 6.67,0 13.33,0 20,0 10,0 16.67,-3.33 23.33,-3.33 0,0 0,3.33 0,3.33 0,10 0,20 0,36.67 0,13.33 0,26.67 0,33.33 0,3.33 0,6.67 0,6.67 0,3.33 3.33,3.33 6.67,3.33 16.67,0 23.33,-13.33 26.67,-36.67 3.33,-16.67 6.67,-30 16.67,-40 0,-3.33 13.33,-6.67 40,-6.67 30,0 43.33,3.33 43.33,6.67 0,0 0,0 -3.33,0 -3.33,6.67 -6.67,10 -6.67,10 0,3.33 -3.33,10 -3.33,13.33 -3.33,13.33 -3.33,23.33 -3.33,26.67 -3.33,6.67 -6.67,16.67 -10,23.33 -3.33,6.67 -10,16.67 -16.67,23.33 -6.67,6.67 -10,10 -10,10 0,3.33 3.33,10 10,23.33 3.33,10 10,26.67 16.67,43.33 3.33,3.33 10,16.67 26.67,40 0,0 0,0 0,0zm246.67 6.67c0,3.33 0,3.33 -6.67,3.33 -3.33,0 -10,0 -20,0 -10,0 -16.67,0 -20,0 -6.67,0 -13.33,0 -23.33,0 -6.67,0 -16.67,0 -20,0 -3.33,0 -3.33,-3.33 -3.33,-3.33 0,0 0,-3.33 0,-10 0,-3.33 -3.33,-6.67 -6.67,-6.67 -26.67,0 -40,0 -46.67,3.33 -3.33,0 -6.67,3.33 -6.67,10 0,3.33 -3.33,6.67 -3.33,6.67 -6.67,0 -13.33,0 -20,0 -10,0 -16.67,0 -20,0 -6.67,0 -13.33,0 -20,0 -10,0 -16.67,0 -20,0 -3.33,0 -6.67,0 -6.67,-3.33 0,-3.33 26.67,-76.67 76.67,-223.33 3.33,-3.33 3.33,-3.33 3.33,-3.33 0,-3.33 3.33,-3.33 6.67,-3.33 3.33,0 6.67,3.33 16.67,3.33 6.67,0 13.33,0 16.67,0 13.33,0 26.67,0 30,0 3.33,-3.33 3.33,-3.33 3.33,-3.33 3.33,0 3.33,3.33 6.67,6.67 0,3.33 6.67,10 13.33,30 6.67,13.33 16.67,33.33 26.67,60 6.67,16.67 13.33,36.67 23.33,66.67 6.67,30 13.33,50 20,66.67 0,0 0,0 0,0zm-106.67 -103.33c0,-10 -6.67,-16.67 -16.67,-23.33 -6.67,6.67 -13.33,16.67 -13.33,23.33 0,3.33 3.33,6.67 3.33,10 3.33,3.33 6.67,3.33 10,3.33 6.67,0 10,0 10,-3.33 3.33,-3.33 6.67,-6.67 6.67,-10zm216.67 60c0,13.33 -6.67,26.67 -16.67,36.67 -10,10 -20,13.33 -36.67,13.33 -13.33,0 -23.33,-3.33 -33.33,-13.33 -10,-10 -16.67,-23.33 -16.67,-36.67 0,-13.33 6.67,-26.67 16.67,-36.67 10,-10 20,-13.33 33.33,-13.33 16.67,0 26.67,3.33 36.67,13.33 10,10 16.67,23.33 16.67,36.67zm113.33 43.33c0,3.33 -3.33,3.33 -6.67,3.33 -3.33,0 -10,0 -20,0 -10,0 -16.67,0 -23.33,0 -3.33,0 -10,0 -20,0 -6.67,0 -13.33,0 -20,0 -3.33,0 -3.33,0 -3.33,-3.33 0,-13.33 0,-33.33 0,-60 3.33,-26.67 3.33,-46.67 3.33,-60 0,-13.33 0,-30 -3.33,-50 0,-23.33 0,-40 0,-50 0,-3.33 0,-6.67 3.33,-6.67 3.33,0 13.33,3.33 20,3.33 10,0 16.67,0 23.33,0 3.33,0 10,0 20,0 10,0 16.67,-3.33 20,-3.33 3.33,0 3.33,3.33 3.33,6.67 0,10 0,26.67 0,50 0,20 0,36.67 0,50 0,13.33 0,33.33 0,60 0,26.67 3.33,46.67 3.33,60zm250 -113.33c0,16.67 -3.33,30 -10,46.67 -6.67,16.67 -13.33,30 -26.67,40 -16.67,20 -43.33,30 -76.67,30 -3.33,0 -13.33,0 -26.67,0 -13.33,0 -23.33,0 -30,0 -3.33,0 -13.33,0 -23.33,0 -13.33,0 -20,0 -26.67,0 -3.33,0 -3.33,0 -3.33,-3.33 0,-13.33 0,-30 0,-53.33 0,-26.67 3.33,-43.33 3.33,-53.33 0,-13.33 -3.33,-33.33 -3.33,-56.67 0,-26.67 0,-46.67 0,-56.67 0,-3.33 0,-6.67 3.33,-6.67l40 0c3.33,0 10,0 16.67,0 10,0 16.67,0 20,0 43.33,0 76.67,6.67 96.67,20 13.33,10 23.33,23.33 33.33,43.33 6.67,16.67 13.33,33.33 13.33,50zm-86.67 0c0,-10 -3.33,-23.33 -13.33,-30 -6.67,-10 -16.67,-16.67 -30,-16.67 -6.67,0 -10,3.33 -10,10 0,3.33 0,10 0,20 0,6.67 0,13.33 0,20 0,3.33 0,10 0,20 0,6.67 0,13.33 0,20 0,3.33 3.33,6.67 10,6.67 13.33,0 23.33,-3.33 33.33,-13.33 6.67,-10 10,-23.33 10,-36.67z"/>
  </g>
 </g>
</svg>
